<?xml version="1.0" standalone="no"?>
<!DOCTYPE svg PUBLIC "-//W3C//DTD SVG 20010904//EN"
 "http://www.w3.org/TR/2001/REC-SVG-20010904/DTD/svg10.dtd">
<svg version="1.0" xmlns="http://www.w3.org/2000/svg"
 width="192.000000pt" height="192.000000pt" viewBox="0 0 192.000000 192.000000"
 preserveAspectRatio="xMidYMid meet">
<metadata>
Created by potrace 1.14, written by Peter Selinger 2001-2017
</metadata>
<g transform="translate(0.000000,192.000000) scale(0.100000,-0.100000)"
fill="#000000" stroke="none">
<path d="M44 1903 c-44 -41 -44 -32 -44 -932 0 -472 3 -872 6 -890 4 -17 17
-42 30 -56 l23 -25 901 0 901 0 23 25 c13 14 26 39 30 56 8 41 8 1717 0 1758
-4 17 -17 42 -30 56 l-23 25 -899 0 c-842 0 -900 -1 -918 -17z"/>
</g>
</svg>
